<?xml version="1.0" encoding="UTF-8" standalone="no"?>
<!DOCTYPE svg PUBLIC "-//W3C//DTD SVG 1.1//EN" "http://www.w3.org/Graphics/SVG/1.1/DTD/svg11.dtd">
<svg width="100%" height="100%" viewBox="0 0 1280 550" version="1.1" xmlns="http://www.w3.org/2000/svg" xmlns:xlink="http://www.w3.org/1999/xlink" xml:space="preserve" xmlns:serif="http://www.serif.com/" style="fill-rule:evenodd;clip-rule:evenodd;stroke-linejoin:round;stroke-miterlimit:2;">
    <g transform="matrix(1,0,0,1,330.594,-27.0545)">
        <path d="M389.764,66.142C351.378,54.331 315.551,43.504 266.929,57.874C218.307,72.244 134.252,104.528 98.031,152.362C61.811,200.197 49.606,294.882 49.606,344.882C49.606,394.882 68.701,418.701 98.031,452.362C127.362,486.024 173.819,534.449 225.591,546.85C277.362,559.252 353.346,553.543 408.661,526.772C463.976,500 533.465,433.268 557.48,386.22C581.496,339.173 562.795,287.402 552.756,244.488C542.717,201.575 524.409,158.465 497.244,128.74C470.079,99.016 428.15,77.953 389.764,66.142C351.378,54.331 315.551,43.504 266.929,57.874" style="fill:rgb(201,84,84);fill-rule:nonzero;"/>
    </g>
    <g transform="matrix(1.07761,0,0,0.473881,-60.3282,77.9851)">
        <g transform="matrix(189.309,0,0,430.488,208.331,520.382)">
            <path d="M0.281,0.016C0.236,0.016 0.193,0.007 0.154,-0.013C0.115,-0.032 0.083,-0.06 0.059,-0.098C0.034,-0.136 0.022,-0.184 0.022,-0.242C0.022,-0.297 0.035,-0.345 0.06,-0.384C0.085,-0.423 0.12,-0.452 0.163,-0.473C0.206,-0.493 0.255,-0.503 0.308,-0.503C0.345,-0.503 0.378,-0.496 0.406,-0.482C0.434,-0.468 0.456,-0.45 0.473,-0.427C0.489,-0.404 0.498,-0.378 0.499,-0.351C0.486,-0.312 0.461,-0.293 0.423,-0.293C0.402,-0.293 0.383,-0.301 0.366,-0.317C0.349,-0.333 0.339,-0.363 0.337,-0.407L0.335,-0.449L0.331,-0.449C0.316,-0.449 0.3,-0.443 0.283,-0.432C0.266,-0.42 0.251,-0.401 0.24,-0.374C0.228,-0.347 0.222,-0.31 0.222,-0.264C0.222,-0.209 0.234,-0.166 0.258,-0.137C0.281,-0.107 0.313,-0.092 0.353,-0.092C0.375,-0.092 0.394,-0.096 0.41,-0.106C0.426,-0.115 0.441,-0.126 0.455,-0.139L0.494,-0.101C0.473,-0.06 0.444,-0.031 0.407,-0.012C0.37,0.007 0.328,0.016 0.281,0.016Z" style="fill-rule:nonzero;"/>
            <path d="M0.321,-0.433L0.322,-0.406C0.325,-0.357 0.337,-0.324 0.356,-0.306C0.376,-0.287 0.399,-0.278 0.423,-0.278C0.468,-0.278 0.498,-0.301 0.513,-0.346C0.514,-0.348 0.514,-0.35 0.514,-0.352C0.512,-0.382 0.503,-0.41 0.484,-0.435C0.467,-0.46 0.443,-0.48 0.413,-0.495C0.383,-0.51 0.348,-0.518 0.308,-0.518C0.252,-0.518 0.202,-0.507 0.157,-0.486C0.111,-0.464 0.075,-0.433 0.048,-0.392C0.021,-0.35 0.007,-0.3 0.007,-0.242C0.007,-0.181 0.02,-0.13 0.046,-0.09C0.072,-0.05 0.106,-0.019 0.148,0.001C0.189,0.021 0.233,0.031 0.281,0.031C0.331,0.031 0.375,0.021 0.414,0.001C0.453,-0.019 0.484,-0.051 0.507,-0.094C0.51,-0.1 0.509,-0.107 0.504,-0.112L0.465,-0.15C0.46,-0.155 0.451,-0.155 0.445,-0.15C0.432,-0.137 0.418,-0.127 0.403,-0.118C0.389,-0.11 0.372,-0.107 0.353,-0.107C0.318,-0.107 0.29,-0.12 0.269,-0.146C0.247,-0.173 0.237,-0.213 0.237,-0.264C0.237,-0.308 0.242,-0.342 0.253,-0.368C0.263,-0.392 0.276,-0.409 0.291,-0.419C0.301,-0.427 0.311,-0.431 0.321,-0.433ZM0.281,0.016C0.236,0.016 0.193,0.006 0.154,-0.013C0.115,-0.032 0.083,-0.06 0.058,-0.098C0.034,-0.136 0.022,-0.184 0.022,-0.242C0.022,-0.297 0.035,-0.345 0.06,-0.383C0.085,-0.423 0.12,-0.452 0.163,-0.473C0.206,-0.493 0.255,-0.503 0.308,-0.503C0.345,-0.503 0.378,-0.496 0.406,-0.482C0.434,-0.468 0.456,-0.45 0.473,-0.427C0.489,-0.404 0.498,-0.378 0.499,-0.351C0.486,-0.312 0.461,-0.293 0.423,-0.293C0.402,-0.293 0.383,-0.301 0.366,-0.317C0.349,-0.333 0.339,-0.363 0.337,-0.407L0.335,-0.449L0.331,-0.449C0.316,-0.449 0.3,-0.443 0.283,-0.432C0.265,-0.42 0.251,-0.401 0.239,-0.374C0.228,-0.347 0.222,-0.31 0.222,-0.264C0.222,-0.209 0.234,-0.166 0.257,-0.137C0.281,-0.107 0.313,-0.092 0.353,-0.092C0.375,-0.092 0.394,-0.097 0.41,-0.105C0.426,-0.115 0.441,-0.126 0.455,-0.139L0.494,-0.101C0.473,-0.06 0.444,-0.031 0.407,-0.012C0.37,0.007 0.328,0.016 0.281,0.016Z" style="fill:white;"/>
        </g>
        <g transform="matrix(189.309,0,0,430.488,305.446,520.382)">
            <path d="M0.414,0.016C0.383,0.016 0.358,0.01 0.339,-0.003C0.32,-0.015 0.306,-0.032 0.297,-0.055C0.278,-0.034 0.258,-0.017 0.239,-0.004C0.219,0.01 0.191,0.016 0.155,0.016C0.116,0.016 0.084,0.005 0.061,-0.018C0.037,-0.041 0.025,-0.072 0.025,-0.113C0.025,-0.139 0.031,-0.162 0.043,-0.183C0.054,-0.203 0.075,-0.222 0.105,-0.239C0.134,-0.256 0.176,-0.271 0.23,-0.285C0.238,-0.287 0.247,-0.29 0.258,-0.293C0.269,-0.296 0.28,-0.298 0.291,-0.301L0.291,-0.337C0.291,-0.38 0.286,-0.409 0.277,-0.425C0.267,-0.441 0.246,-0.449 0.215,-0.449L0.2,-0.449L0.2,-0.415C0.2,-0.374 0.192,-0.345 0.175,-0.329C0.158,-0.312 0.139,-0.303 0.118,-0.303C0.077,-0.303 0.052,-0.321 0.042,-0.357C0.042,-0.4 0.063,-0.436 0.104,-0.463C0.145,-0.49 0.205,-0.503 0.286,-0.503C0.355,-0.503 0.404,-0.488 0.433,-0.458C0.461,-0.427 0.475,-0.378 0.475,-0.309L0.475,-0.08C0.475,-0.069 0.481,-0.063 0.492,-0.063C0.496,-0.063 0.5,-0.065 0.504,-0.068C0.508,-0.071 0.513,-0.076 0.519,-0.085L0.548,-0.069C0.536,-0.038 0.52,-0.017 0.499,-0.004C0.478,0.01 0.449,0.016 0.414,0.016ZM0.197,-0.144C0.197,-0.119 0.202,-0.101 0.212,-0.089C0.222,-0.077 0.234,-0.071 0.249,-0.071C0.254,-0.071 0.259,-0.072 0.265,-0.075C0.27,-0.077 0.279,-0.082 0.291,-0.09L0.291,-0.254C0.281,-0.251 0.271,-0.248 0.262,-0.243C0.248,-0.236 0.234,-0.225 0.219,-0.209C0.204,-0.193 0.197,-0.171 0.197,-0.144Z" style="fill-rule:nonzero;"/>
            <path d="M0.215,-0.434L0.215,-0.434C0.24,-0.434 0.256,-0.43 0.264,-0.417C0.273,-0.403 0.276,-0.376 0.276,-0.337C0.276,-0.337 0.276,-0.313 0.276,-0.313L0.226,-0.299C0.171,-0.285 0.128,-0.269 0.097,-0.251C0.065,-0.233 0.042,-0.212 0.03,-0.19C0.017,-0.167 0.01,-0.142 0.01,-0.113C0.01,-0.068 0.024,-0.033 0.05,-0.007C0.077,0.018 0.111,0.031 0.155,0.031C0.195,0.031 0.225,0.023 0.247,0.009C0.262,-0.002 0.278,-0.014 0.293,-0.029C0.302,-0.013 0.315,-0 0.33,0.01C0.352,0.023 0.379,0.031 0.414,0.031C0.453,0.031 0.483,0.023 0.506,0.009C0.53,-0.005 0.548,-0.03 0.562,-0.064C0.564,-0.071 0.562,-0.078 0.555,-0.082L0.526,-0.098C0.519,-0.102 0.511,-0.1 0.507,-0.093C0.502,-0.086 0.498,-0.082 0.495,-0.079C0.494,-0.078 0.493,-0.078 0.492,-0.078C0.491,-0.078 0.491,-0.078 0.49,-0.078C0.49,-0.079 0.49,-0.079 0.49,-0.08C0.49,-0.08 0.49,-0.309 0.49,-0.309C0.49,-0.382 0.474,-0.435 0.443,-0.468C0.413,-0.5 0.361,-0.518 0.286,-0.518C0.202,-0.518 0.138,-0.503 0.095,-0.475C0.05,-0.445 0.027,-0.405 0.027,-0.357C0.027,-0.356 0.027,-0.354 0.028,-0.353C0.034,-0.331 0.045,-0.315 0.06,-0.305C0.075,-0.294 0.094,-0.288 0.118,-0.288C0.143,-0.288 0.166,-0.298 0.186,-0.318C0.204,-0.337 0.215,-0.369 0.215,-0.415L0.215,-0.434ZM0.414,0.016C0.383,0.016 0.357,0.01 0.339,-0.002C0.319,-0.015 0.306,-0.032 0.297,-0.055C0.278,-0.034 0.258,-0.016 0.238,-0.004C0.219,0.009 0.191,0.016 0.155,0.016C0.116,0.016 0.084,0.005 0.061,-0.018C0.037,-0.041 0.025,-0.072 0.025,-0.113C0.025,-0.139 0.031,-0.162 0.042,-0.183C0.054,-0.203 0.075,-0.221 0.104,-0.238C0.134,-0.256 0.176,-0.271 0.23,-0.285C0.238,-0.287 0.247,-0.289 0.258,-0.293C0.269,-0.295 0.28,-0.298 0.291,-0.301L0.291,-0.337C0.291,-0.38 0.286,-0.409 0.276,-0.425C0.267,-0.441 0.246,-0.449 0.215,-0.449L0.2,-0.449L0.2,-0.415C0.2,-0.374 0.192,-0.345 0.175,-0.329C0.158,-0.311 0.139,-0.303 0.118,-0.303C0.077,-0.303 0.052,-0.321 0.042,-0.357C0.042,-0.4 0.063,-0.436 0.103,-0.463C0.145,-0.49 0.205,-0.503 0.286,-0.503C0.355,-0.503 0.404,-0.488 0.432,-0.458C0.461,-0.427 0.475,-0.378 0.475,-0.309L0.475,-0.08C0.475,-0.069 0.481,-0.063 0.492,-0.063C0.496,-0.063 0.5,-0.065 0.504,-0.067C0.508,-0.071 0.513,-0.076 0.519,-0.085L0.548,-0.069C0.536,-0.038 0.519,-0.016 0.498,-0.004C0.478,0.009 0.449,0.016 0.414,0.016ZM0.197,-0.144C0.197,-0.119 0.202,-0.101 0.212,-0.089C0.222,-0.077 0.234,-0.071 0.249,-0.071C0.254,-0.071 0.259,-0.072 0.264,-0.075C0.27,-0.077 0.279,-0.082 0.291,-0.09L0.291,-0.254C0.281,-0.251 0.271,-0.248 0.262,-0.243C0.248,-0.236 0.234,-0.225 0.219,-0.209C0.204,-0.193 0.197,-0.171 0.197,-0.144ZM0.212,-0.144C0.212,-0.167 0.217,-0.186 0.23,-0.199C0.243,-0.213 0.256,-0.224 0.268,-0.23L0.276,-0.233C0.276,-0.233 0.276,-0.098 0.276,-0.098C0.269,-0.093 0.263,-0.09 0.259,-0.088C0.255,-0.087 0.252,-0.086 0.249,-0.086C0.239,-0.086 0.23,-0.09 0.223,-0.098C0.215,-0.108 0.212,-0.124 0.212,-0.144Z" style="fill:white;"/>
        </g>
        <g transform="matrix(189.309,0,0,430.488,407.673,520.382)">
            <path d="M0.021,-0L0.021,-0.051L0.069,-0.062C0.07,-0.086 0.07,-0.112 0.07,-0.139L0.07,-0.273C0.07,-0.292 0.07,-0.307 0.07,-0.318C0.069,-0.329 0.069,-0.34 0.069,-0.35C0.068,-0.359 0.068,-0.371 0.067,-0.384L0.013,-0.393L0.013,-0.434L0.234,-0.503L0.252,-0.492L0.26,-0.376C0.273,-0.419 0.293,-0.451 0.318,-0.472C0.342,-0.493 0.367,-0.503 0.391,-0.503C0.416,-0.503 0.436,-0.496 0.454,-0.482C0.471,-0.467 0.481,-0.445 0.484,-0.414C0.483,-0.387 0.475,-0.367 0.46,-0.352C0.445,-0.337 0.428,-0.329 0.408,-0.329C0.377,-0.329 0.349,-0.347 0.324,-0.384L0.319,-0.391C0.307,-0.378 0.295,-0.36 0.284,-0.339C0.272,-0.318 0.264,-0.296 0.26,-0.273L0.26,-0.142C0.26,-0.116 0.26,-0.091 0.261,-0.068L0.339,-0.051L0.339,-0L0.021,-0Z" style="fill-rule:nonzero;"/>
            <path d="M0.318,-0.367C0.345,-0.331 0.376,-0.314 0.408,-0.314C0.432,-0.314 0.453,-0.323 0.471,-0.341C0.487,-0.359 0.497,-0.382 0.499,-0.413C0.499,-0.414 0.499,-0.415 0.499,-0.416C0.495,-0.451 0.482,-0.476 0.463,-0.493C0.443,-0.509 0.419,-0.518 0.391,-0.518C0.364,-0.518 0.336,-0.507 0.308,-0.483C0.294,-0.472 0.281,-0.456 0.27,-0.438C0.27,-0.438 0.267,-0.493 0.267,-0.493C0.266,-0.498 0.264,-0.502 0.26,-0.505L0.242,-0.516C0.238,-0.518 0.234,-0.518 0.23,-0.517L0.009,-0.448C0.002,-0.446 -0.002,-0.44 -0.002,-0.434L-0.002,-0.393C-0.002,-0.386 0.003,-0.38 0.011,-0.378L0.053,-0.371C0.053,-0.363 0.054,-0.356 0.054,-0.349C0.054,-0.339 0.054,-0.329 0.055,-0.318C0.055,-0.306 0.055,-0.291 0.055,-0.273L0.055,-0.139C0.055,-0.116 0.055,-0.094 0.055,-0.074C0.055,-0.074 0.018,-0.065 0.018,-0.065C0.011,-0.064 0.006,-0.058 0.006,-0.051L0.006,0C0.006,0.008 0.013,0.015 0.021,0.015L0.339,0.015C0.347,0.015 0.354,0.008 0.354,-0L0.354,-0.051C0.354,-0.058 0.349,-0.064 0.342,-0.065L0.275,-0.08C0.275,-0.1 0.275,-0.12 0.275,-0.142L0.275,-0.272C0.279,-0.292 0.286,-0.312 0.296,-0.332C0.304,-0.345 0.311,-0.357 0.318,-0.367ZM0.021,0L0.021,-0.051L0.069,-0.062C0.07,-0.086 0.07,-0.111 0.07,-0.139L0.07,-0.273C0.07,-0.292 0.07,-0.307 0.069,-0.318C0.069,-0.329 0.069,-0.34 0.069,-0.349C0.068,-0.359 0.068,-0.371 0.067,-0.384L0.013,-0.393L0.013,-0.434L0.234,-0.503L0.252,-0.492L0.26,-0.376C0.273,-0.419 0.293,-0.451 0.317,-0.472C0.342,-0.493 0.367,-0.503 0.391,-0.503C0.416,-0.503 0.436,-0.496 0.454,-0.482C0.47,-0.467 0.481,-0.445 0.484,-0.414C0.483,-0.387 0.475,-0.367 0.46,-0.352C0.445,-0.337 0.428,-0.329 0.408,-0.329C0.377,-0.329 0.349,-0.347 0.324,-0.384L0.319,-0.391C0.307,-0.378 0.295,-0.36 0.284,-0.339C0.272,-0.318 0.264,-0.296 0.26,-0.273L0.26,-0.142C0.26,-0.116 0.26,-0.091 0.261,-0.068L0.339,-0.051L0.339,0L0.021,0Z" style="fill:white;"/>
        </g>
        <g transform="matrix(189.309,0,0,430.488,495.323,520.382)">
            <path d="M0.224,-0.241C0.224,-0.19 0.232,-0.151 0.249,-0.124C0.266,-0.097 0.287,-0.083 0.314,-0.083C0.329,-0.083 0.342,-0.087 0.355,-0.094L0.355,-0.398C0.344,-0.404 0.332,-0.407 0.318,-0.407C0.291,-0.407 0.268,-0.393 0.251,-0.366C0.233,-0.338 0.224,-0.296 0.224,-0.241ZM0.369,0.012L0.36,-0.042C0.322,-0.003 0.275,0.016 0.22,0.016C0.183,0.016 0.15,0.007 0.12,-0.013C0.09,-0.032 0.066,-0.06 0.049,-0.098C0.031,-0.135 0.022,-0.182 0.022,-0.239C0.022,-0.295 0.033,-0.343 0.055,-0.382C0.077,-0.421 0.105,-0.451 0.14,-0.472C0.174,-0.493 0.209,-0.503 0.245,-0.503C0.272,-0.503 0.294,-0.499 0.313,-0.491C0.332,-0.483 0.348,-0.472 0.362,-0.457L0.362,-0.621L0.298,-0.631L0.298,-0.676L0.532,-0.721L0.549,-0.71L0.545,-0.571L0.545,-0.06L0.581,-0.051L0.581,-0L0.369,0.012Z" style="fill-rule:nonzero;"/>
            <path d="M0.354,0.014C0.356,0.022 0.362,0.027 0.37,0.027L0.582,0.015C0.59,0.014 0.596,0.008 0.596,-0L0.596,-0.051C0.596,-0.058 0.591,-0.064 0.585,-0.065L0.56,-0.071C0.56,-0.071 0.56,-0.571 0.56,-0.571C0.56,-0.571 0.564,-0.71 0.564,-0.71C0.564,-0.715 0.561,-0.72 0.557,-0.722L0.54,-0.733C0.537,-0.735 0.533,-0.736 0.529,-0.735L0.295,-0.69C0.288,-0.689 0.283,-0.683 0.283,-0.676L0.283,-0.631C0.283,-0.624 0.289,-0.618 0.296,-0.616L0.347,-0.608C0.347,-0.608 0.347,-0.489 0.347,-0.489C0.338,-0.495 0.329,-0.5 0.319,-0.505C0.299,-0.513 0.274,-0.518 0.245,-0.518C0.206,-0.518 0.169,-0.507 0.132,-0.485C0.095,-0.463 0.066,-0.431 0.042,-0.389C0.019,-0.348 0.007,-0.298 0.007,-0.239C0.007,-0.18 0.017,-0.131 0.035,-0.091C0.054,-0.051 0.08,-0.02 0.112,-0C0.144,0.02 0.18,0.031 0.22,0.031C0.27,0.031 0.313,0.016 0.35,-0.013C0.35,-0.013 0.354,0.014 0.354,0.014ZM0.369,0.012L0.36,-0.042C0.322,-0.003 0.275,0.016 0.22,0.016C0.183,0.016 0.15,0.006 0.12,-0.013C0.09,-0.032 0.066,-0.06 0.049,-0.097C0.031,-0.135 0.022,-0.182 0.022,-0.239C0.022,-0.295 0.033,-0.343 0.055,-0.382C0.077,-0.421 0.105,-0.451 0.139,-0.472C0.174,-0.493 0.209,-0.503 0.245,-0.503C0.272,-0.503 0.294,-0.499 0.313,-0.491C0.332,-0.483 0.348,-0.472 0.362,-0.457L0.362,-0.621L0.298,-0.631L0.298,-0.676L0.532,-0.721L0.549,-0.71L0.545,-0.571L0.545,-0.06L0.581,-0.051L0.581,0L0.369,0.012ZM0.224,-0.241C0.224,-0.19 0.232,-0.151 0.249,-0.124C0.266,-0.097 0.287,-0.083 0.314,-0.083C0.329,-0.083 0.342,-0.087 0.355,-0.094L0.355,-0.398C0.344,-0.404 0.332,-0.407 0.318,-0.407C0.291,-0.407 0.268,-0.393 0.251,-0.365C0.233,-0.338 0.224,-0.296 0.224,-0.241ZM0.239,-0.241C0.239,-0.293 0.246,-0.332 0.263,-0.358C0.277,-0.38 0.296,-0.392 0.318,-0.392C0.326,-0.392 0.334,-0.391 0.34,-0.389C0.34,-0.389 0.34,-0.103 0.34,-0.103C0.332,-0.099 0.323,-0.098 0.314,-0.098C0.292,-0.098 0.275,-0.109 0.262,-0.132C0.246,-0.157 0.239,-0.194 0.239,-0.241Z" style="fill:white;"/>
        </g>
        <g transform="matrix(189.309,0,0,430.488,609.854,520.382)">
            <path d="M0.206,0.016C0.137,0.016 0.075,-0 0.022,-0.033L0.027,-0.161L0.118,-0.161L0.134,-0.057C0.145,-0.052 0.157,-0.049 0.169,-0.047C0.181,-0.044 0.193,-0.043 0.206,-0.043C0.231,-0.043 0.251,-0.047 0.265,-0.055C0.279,-0.063 0.286,-0.076 0.286,-0.095C0.286,-0.108 0.281,-0.12 0.271,-0.131C0.26,-0.142 0.238,-0.151 0.205,-0.16L0.148,-0.175C0.109,-0.186 0.079,-0.205 0.058,-0.232C0.037,-0.259 0.027,-0.291 0.027,-0.33C0.027,-0.38 0.046,-0.421 0.085,-0.454C0.123,-0.487 0.178,-0.503 0.25,-0.503C0.281,-0.503 0.309,-0.5 0.336,-0.493C0.362,-0.486 0.389,-0.476 0.416,-0.463L0.408,-0.35L0.316,-0.35L0.294,-0.439C0.287,-0.44 0.28,-0.442 0.273,-0.443C0.265,-0.444 0.256,-0.444 0.245,-0.444C0.226,-0.444 0.211,-0.44 0.198,-0.432C0.185,-0.423 0.178,-0.41 0.178,-0.393C0.178,-0.382 0.183,-0.372 0.192,-0.362C0.201,-0.352 0.223,-0.342 0.258,-0.333L0.314,-0.318C0.361,-0.305 0.394,-0.286 0.415,-0.259C0.435,-0.232 0.445,-0.199 0.445,-0.16C0.445,-0.101 0.424,-0.057 0.381,-0.028C0.337,0.001 0.279,0.016 0.206,0.016Z" style="fill-rule:nonzero;"/>
            <path d="M0.104,-0.176L0.027,-0.176C0.019,-0.176 0.013,-0.169 0.012,-0.162L0.007,-0.034C0.007,-0.028 0.01,-0.023 0.014,-0.02C0.07,0.014 0.134,0.031 0.206,0.031C0.283,0.031 0.344,0.015 0.389,-0.016C0.436,-0.048 0.46,-0.096 0.46,-0.16C0.46,-0.203 0.448,-0.239 0.426,-0.268C0.404,-0.297 0.368,-0.319 0.318,-0.332L0.262,-0.347C0.231,-0.355 0.211,-0.363 0.203,-0.372C0.196,-0.379 0.193,-0.386 0.193,-0.393C0.193,-0.405 0.197,-0.414 0.205,-0.419C0.216,-0.426 0.229,-0.429 0.245,-0.429C0.255,-0.429 0.263,-0.429 0.271,-0.428C0.275,-0.427 0.278,-0.427 0.282,-0.426C0.282,-0.426 0.302,-0.346 0.302,-0.346C0.303,-0.34 0.309,-0.335 0.316,-0.335L0.408,-0.335C0.416,-0.335 0.422,-0.341 0.423,-0.349L0.431,-0.462C0.431,-0.468 0.428,-0.474 0.422,-0.476C0.394,-0.49 0.366,-0.5 0.339,-0.507C0.312,-0.514 0.282,-0.518 0.25,-0.518C0.174,-0.518 0.116,-0.5 0.075,-0.465C0.033,-0.43 0.012,-0.385 0.012,-0.33C0.012,-0.288 0.024,-0.252 0.046,-0.223C0.061,-0.203 0.08,-0.187 0.104,-0.176ZM0.206,0.016C0.137,0.016 0.075,-0 0.022,-0.033L0.027,-0.161L0.118,-0.161L0.134,-0.057C0.145,-0.052 0.157,-0.049 0.169,-0.046C0.181,-0.044 0.193,-0.043 0.206,-0.043C0.231,-0.043 0.251,-0.047 0.265,-0.055C0.279,-0.063 0.286,-0.076 0.286,-0.095C0.286,-0.108 0.281,-0.12 0.27,-0.131C0.26,-0.142 0.238,-0.151 0.205,-0.16L0.148,-0.175C0.109,-0.186 0.079,-0.205 0.058,-0.232C0.037,-0.258 0.027,-0.291 0.027,-0.33C0.027,-0.38 0.046,-0.421 0.085,-0.454C0.123,-0.487 0.178,-0.503 0.25,-0.503C0.281,-0.503 0.309,-0.5 0.335,-0.493C0.362,-0.486 0.389,-0.476 0.416,-0.463L0.408,-0.35L0.316,-0.35L0.294,-0.439C0.287,-0.44 0.28,-0.442 0.272,-0.443C0.265,-0.444 0.256,-0.444 0.245,-0.444C0.226,-0.444 0.211,-0.44 0.197,-0.432C0.184,-0.423 0.178,-0.41 0.178,-0.393C0.178,-0.382 0.183,-0.372 0.192,-0.362C0.201,-0.352 0.223,-0.342 0.258,-0.333L0.314,-0.318C0.361,-0.305 0.394,-0.286 0.414,-0.259C0.435,-0.232 0.445,-0.199 0.445,-0.16C0.445,-0.101 0.423,-0.057 0.381,-0.028C0.337,0.001 0.279,0.016 0.206,0.016ZM0.132,-0.164C0.132,-0.164 0.132,-0.164 0.133,-0.163C0.133,-0.163 0.147,-0.068 0.147,-0.068C0.155,-0.065 0.163,-0.063 0.172,-0.061C0.183,-0.059 0.194,-0.058 0.206,-0.058C0.228,-0.058 0.245,-0.061 0.258,-0.068C0.267,-0.073 0.271,-0.082 0.271,-0.095C0.271,-0.105 0.267,-0.113 0.26,-0.121C0.251,-0.13 0.231,-0.138 0.201,-0.146L0.144,-0.161C0.14,-0.162 0.136,-0.163 0.132,-0.164Z" style="fill:white;"/>
        </g>
        <g transform="matrix(189.309,0,0,430.488,697.504,520.382)">
            <path d="M0.224,0.016C0.175,0.016 0.136,0.005 0.109,-0.019C0.082,-0.042 0.068,-0.08 0.068,-0.133C0.068,-0.152 0.068,-0.17 0.069,-0.187C0.069,-0.203 0.069,-0.221 0.069,-0.24L0.069,-0.412L0.012,-0.412L0.012,-0.478L0.08,-0.487L0.14,-0.629L0.259,-0.629L0.259,-0.487L0.351,-0.487L0.351,-0.412L0.259,-0.412L0.259,-0.144C0.259,-0.121 0.264,-0.105 0.273,-0.094C0.282,-0.083 0.294,-0.078 0.308,-0.078C0.323,-0.078 0.34,-0.085 0.357,-0.098L0.382,-0.075C0.369,-0.046 0.349,-0.024 0.324,-0.008C0.299,0.008 0.265,0.016 0.224,0.016Z" style="fill-rule:nonzero;"/>
            <path d="M0.224,0.031C0.269,0.031 0.305,0.022 0.332,0.004C0.36,-0.013 0.381,-0.037 0.395,-0.069C0.398,-0.075 0.397,-0.081 0.392,-0.086L0.367,-0.109C0.362,-0.114 0.354,-0.114 0.348,-0.11C0.334,-0.099 0.321,-0.093 0.308,-0.093C0.298,-0.093 0.29,-0.096 0.284,-0.104C0.277,-0.112 0.274,-0.126 0.274,-0.144L0.274,-0.397C0.274,-0.397 0.351,-0.397 0.351,-0.397C0.359,-0.397 0.366,-0.404 0.366,-0.412L0.366,-0.487C0.366,-0.495 0.359,-0.502 0.351,-0.502L0.274,-0.502C0.274,-0.502 0.274,-0.629 0.274,-0.629C0.274,-0.637 0.267,-0.644 0.259,-0.644L0.14,-0.644C0.134,-0.644 0.129,-0.64 0.126,-0.635L0.07,-0.5C0.07,-0.5 0.01,-0.493 0.01,-0.493C0.003,-0.492 -0.003,-0.485 -0.003,-0.478L-0.003,-0.412C-0.003,-0.404 0.004,-0.397 0.012,-0.397L0.054,-0.397C0.054,-0.397 0.054,-0.24 0.054,-0.24C0.054,-0.221 0.054,-0.203 0.054,-0.187C0.053,-0.17 0.053,-0.152 0.053,-0.133C0.053,-0.074 0.069,-0.033 0.1,-0.007C0.129,0.018 0.171,0.031 0.224,0.031ZM0.224,0.016C0.175,0.016 0.136,0.004 0.109,-0.018C0.082,-0.042 0.068,-0.08 0.068,-0.133C0.068,-0.152 0.068,-0.17 0.069,-0.186C0.069,-0.203 0.069,-0.221 0.069,-0.24L0.069,-0.412L0.012,-0.412L0.012,-0.478L0.08,-0.487L0.14,-0.629L0.259,-0.629L0.259,-0.487L0.351,-0.487L0.351,-0.412L0.259,-0.412L0.259,-0.144C0.259,-0.121 0.264,-0.105 0.273,-0.094C0.282,-0.083 0.294,-0.078 0.308,-0.078C0.323,-0.078 0.34,-0.085 0.357,-0.098L0.382,-0.075C0.369,-0.046 0.349,-0.024 0.324,-0.008C0.299,0.008 0.265,0.016 0.224,0.016Z" style="fill:white;"/>
        </g>
        <g transform="matrix(189.309,0,0,430.488,766.98,520.382)">
            <path d="M0.286,0.016C0.229,0.016 0.18,0.005 0.141,-0.019C0.102,-0.042 0.072,-0.073 0.052,-0.113C0.032,-0.153 0.022,-0.198 0.022,-0.247C0.022,-0.297 0.033,-0.341 0.056,-0.38C0.079,-0.418 0.11,-0.448 0.15,-0.47C0.189,-0.492 0.235,-0.503 0.286,-0.503C0.337,-0.503 0.383,-0.492 0.423,-0.471C0.462,-0.449 0.493,-0.419 0.516,-0.381C0.539,-0.342 0.55,-0.298 0.55,-0.247C0.55,-0.196 0.54,-0.151 0.52,-0.112C0.499,-0.072 0.47,-0.041 0.431,-0.018C0.392,0.005 0.343,0.016 0.286,0.016ZM0.286,-0.039C0.308,-0.039 0.324,-0.055 0.335,-0.087C0.345,-0.119 0.35,-0.171 0.35,-0.244C0.35,-0.317 0.345,-0.369 0.335,-0.401C0.324,-0.432 0.308,-0.448 0.286,-0.448C0.264,-0.448 0.248,-0.432 0.238,-0.401C0.227,-0.369 0.222,-0.317 0.222,-0.244C0.222,-0.171 0.227,-0.119 0.238,-0.087C0.248,-0.055 0.264,-0.039 0.286,-0.039Z" style="fill-rule:nonzero;"/>
            <path d="M0.286,0.031C0.346,0.031 0.397,0.019 0.438,-0.005C0.479,-0.029 0.511,-0.063 0.533,-0.105C0.554,-0.146 0.565,-0.194 0.565,-0.247C0.565,-0.301 0.553,-0.347 0.529,-0.388C0.505,-0.429 0.472,-0.46 0.43,-0.483C0.388,-0.506 0.34,-0.518 0.286,-0.518C0.232,-0.518 0.184,-0.506 0.142,-0.483C0.1,-0.46 0.067,-0.428 0.043,-0.387C0.019,-0.346 0.007,-0.3 0.007,-0.247C0.007,-0.195 0.018,-0.148 0.039,-0.106C0.06,-0.064 0.092,-0.03 0.134,-0.006C0.175,0.018 0.226,0.031 0.286,0.031ZM0.286,0.016C0.229,0.016 0.18,0.004 0.141,-0.018C0.102,-0.042 0.072,-0.073 0.052,-0.113C0.032,-0.153 0.022,-0.198 0.022,-0.247C0.022,-0.297 0.033,-0.341 0.056,-0.379C0.079,-0.418 0.11,-0.448 0.15,-0.47C0.189,-0.492 0.235,-0.503 0.286,-0.503C0.337,-0.503 0.383,-0.492 0.422,-0.471C0.462,-0.449 0.493,-0.419 0.516,-0.381C0.539,-0.342 0.55,-0.298 0.55,-0.247C0.55,-0.196 0.54,-0.151 0.52,-0.111C0.499,-0.072 0.47,-0.041 0.43,-0.018C0.392,0.005 0.343,0.016 0.286,0.016ZM0.286,-0.039C0.308,-0.039 0.324,-0.055 0.335,-0.087C0.345,-0.119 0.35,-0.171 0.35,-0.244C0.35,-0.317 0.345,-0.369 0.335,-0.401C0.324,-0.432 0.308,-0.448 0.286,-0.448C0.264,-0.448 0.248,-0.432 0.238,-0.401C0.227,-0.369 0.222,-0.317 0.222,-0.244C0.222,-0.171 0.227,-0.119 0.238,-0.087C0.248,-0.055 0.264,-0.039 0.286,-0.039ZM0.286,-0.054C0.269,-0.054 0.259,-0.068 0.251,-0.092C0.241,-0.123 0.237,-0.173 0.237,-0.244C0.237,-0.315 0.241,-0.365 0.251,-0.396C0.259,-0.42 0.27,-0.433 0.286,-0.433C0.302,-0.433 0.313,-0.42 0.321,-0.396C0.331,-0.365 0.335,-0.315 0.335,-0.244C0.335,-0.173 0.331,-0.123 0.321,-0.092C0.313,-0.068 0.303,-0.054 0.286,-0.054Z" style="fill:white;"/>
        </g>
        <g transform="matrix(189.309,0,0,430.488,877.158,520.382)">
            <path d="M0.281,0.016C0.236,0.016 0.193,0.007 0.154,-0.013C0.115,-0.032 0.083,-0.06 0.059,-0.098C0.034,-0.136 0.022,-0.184 0.022,-0.242C0.022,-0.297 0.035,-0.345 0.06,-0.384C0.085,-0.423 0.12,-0.452 0.163,-0.473C0.206,-0.493 0.255,-0.503 0.308,-0.503C0.345,-0.503 0.378,-0.496 0.406,-0.482C0.434,-0.468 0.456,-0.45 0.473,-0.427C0.489,-0.404 0.498,-0.378 0.499,-0.351C0.486,-0.312 0.461,-0.293 0.423,-0.293C0.402,-0.293 0.383,-0.301 0.366,-0.317C0.349,-0.333 0.339,-0.363 0.337,-0.407L0.335,-0.449L0.331,-0.449C0.316,-0.449 0.3,-0.443 0.283,-0.432C0.266,-0.42 0.251,-0.401 0.24,-0.374C0.228,-0.347 0.222,-0.31 0.222,-0.264C0.222,-0.209 0.234,-0.166 0.258,-0.137C0.281,-0.107 0.313,-0.092 0.353,-0.092C0.375,-0.092 0.394,-0.096 0.41,-0.106C0.426,-0.115 0.441,-0.126 0.455,-0.139L0.494,-0.101C0.473,-0.06 0.444,-0.031 0.407,-0.012C0.37,0.007 0.328,0.016 0.281,0.016Z" style="fill-rule:nonzero;"/>
            <path d="M0.321,-0.433L0.322,-0.406C0.325,-0.357 0.337,-0.324 0.356,-0.306C0.376,-0.287 0.399,-0.278 0.423,-0.278C0.468,-0.278 0.498,-0.301 0.513,-0.346C0.514,-0.348 0.514,-0.35 0.514,-0.352C0.512,-0.382 0.503,-0.41 0.484,-0.435C0.467,-0.46 0.443,-0.48 0.413,-0.495C0.383,-0.51 0.348,-0.518 0.308,-0.518C0.252,-0.518 0.202,-0.507 0.157,-0.486C0.111,-0.464 0.075,-0.433 0.048,-0.392C0.021,-0.35 0.007,-0.3 0.007,-0.242C0.007,-0.181 0.02,-0.13 0.046,-0.09C0.072,-0.05 0.106,-0.019 0.148,0.001C0.189,0.021 0.233,0.031 0.281,0.031C0.331,0.031 0.375,0.021 0.414,0.001C0.453,-0.019 0.484,-0.051 0.507,-0.094C0.51,-0.1 0.509,-0.107 0.504,-0.112L0.465,-0.15C0.46,-0.155 0.451,-0.155 0.445,-0.15C0.432,-0.137 0.418,-0.127 0.403,-0.118C0.389,-0.11 0.372,-0.107 0.353,-0.107C0.318,-0.107 0.29,-0.12 0.269,-0.146C0.247,-0.173 0.237,-0.213 0.237,-0.264C0.237,-0.308 0.242,-0.342 0.253,-0.368C0.263,-0.392 0.276,-0.409 0.291,-0.419C0.301,-0.427 0.311,-0.431 0.321,-0.433ZM0.281,0.016C0.236,0.016 0.193,0.006 0.154,-0.013C0.115,-0.032 0.083,-0.06 0.058,-0.098C0.034,-0.136 0.022,-0.184 0.022,-0.242C0.022,-0.297 0.035,-0.345 0.06,-0.383C0.085,-0.423 0.12,-0.452 0.163,-0.473C0.206,-0.493 0.255,-0.503 0.308,-0.503C0.345,-0.503 0.378,-0.496 0.406,-0.482C0.434,-0.468 0.456,-0.45 0.472,-0.427C0.489,-0.404 0.498,-0.378 0.499,-0.351C0.486,-0.312 0.461,-0.293 0.423,-0.293C0.402,-0.293 0.383,-0.301 0.366,-0.317C0.349,-0.333 0.339,-0.363 0.337,-0.407L0.335,-0.449L0.331,-0.449C0.316,-0.449 0.3,-0.443 0.282,-0.432C0.266,-0.42 0.251,-0.401 0.239,-0.374C0.228,-0.347 0.222,-0.31 0.222,-0.264C0.222,-0.209 0.234,-0.166 0.257,-0.137C0.281,-0.107 0.313,-0.092 0.353,-0.092C0.375,-0.092 0.394,-0.097 0.41,-0.105C0.426,-0.115 0.441,-0.126 0.455,-0.139L0.494,-0.101C0.473,-0.06 0.444,-0.031 0.407,-0.012C0.37,0.007 0.328,0.016 0.281,0.016Z" style="fill:white;"/>
        </g>
        <g transform="matrix(189.309,0,0,430.488,970.487,520.382)">
            <path d="M0.027,-0L0.027,-0.051L0.073,-0.062C0.074,-0.087 0.074,-0.113 0.074,-0.142L0.074,-0.621L0.02,-0.631L0.02,-0.676L0.251,-0.721L0.268,-0.71L0.264,-0.571L0.264,-0.28L0.421,-0.43L0.346,-0.44L0.346,-0.487L0.59,-0.487L0.59,-0.44L0.502,-0.428L0.422,-0.356L0.554,-0.068L0.617,-0.051L0.617,-0L0.385,-0L0.29,-0.235L0.264,-0.212L0.264,-0.138C0.264,-0.109 0.264,-0.083 0.265,-0.06L0.308,-0.051L0.308,-0L0.027,-0Z" style="fill-rule:nonzero;"/>
            <path d="M0.012,0C0.012,0.008 0.019,0.015 0.027,0.015L0.308,0.015C0.316,0.015 0.323,0.008 0.323,0L0.323,-0.051C0.323,-0.058 0.318,-0.064 0.311,-0.065L0.279,-0.072C0.279,-0.092 0.279,-0.114 0.279,-0.138L0.279,-0.205C0.279,-0.205 0.284,-0.21 0.284,-0.21C0.284,-0.21 0.371,0.006 0.371,0.006C0.374,0.011 0.379,0.015 0.385,0.015L0.617,0.015C0.625,0.015 0.632,0.008 0.632,0L0.632,-0.051C0.632,-0.058 0.627,-0.063 0.621,-0.065L0.564,-0.08C0.564,-0.08 0.44,-0.352 0.44,-0.352C0.44,-0.352 0.508,-0.414 0.508,-0.414C0.508,-0.414 0.592,-0.425 0.592,-0.425C0.599,-0.426 0.605,-0.433 0.605,-0.44L0.605,-0.487C0.605,-0.495 0.598,-0.502 0.59,-0.502L0.346,-0.502C0.338,-0.502 0.331,-0.495 0.331,-0.487L0.331,-0.44C0.331,-0.433 0.337,-0.426 0.344,-0.425L0.389,-0.419C0.389,-0.419 0.279,-0.314 0.279,-0.314C0.279,-0.314 0.279,-0.571 0.279,-0.571C0.279,-0.571 0.283,-0.71 0.283,-0.71C0.283,-0.715 0.28,-0.72 0.276,-0.722L0.259,-0.733C0.256,-0.735 0.252,-0.736 0.248,-0.735L0.017,-0.69C0.01,-0.689 0.005,-0.683 0.005,-0.676L0.005,-0.631C0.005,-0.624 0.01,-0.618 0.017,-0.617L0.059,-0.609L0.059,-0.141C0.059,-0.118 0.059,-0.095 0.059,-0.074C0.059,-0.074 0.024,-0.065 0.024,-0.065C0.017,-0.064 0.012,-0.058 0.012,-0.051L0.012,0ZM0.027,0L0.027,-0.051L0.073,-0.062C0.074,-0.087 0.074,-0.113 0.074,-0.141L0.074,-0.621L0.02,-0.631L0.02,-0.676L0.251,-0.721L0.268,-0.71L0.264,-0.571L0.264,-0.28L0.421,-0.43L0.346,-0.44L0.346,-0.487L0.59,-0.487L0.59,-0.44L0.502,-0.428L0.422,-0.356L0.554,-0.068L0.617,-0.051L0.617,0L0.385,0L0.29,-0.235L0.264,-0.212L0.264,-0.138C0.264,-0.109 0.264,-0.083 0.265,-0.06L0.308,-0.051L0.308,0L0.027,0Z" style="fill:white;"/>
        </g>
    </g>
    <g transform="matrix(1,0,0,1,10.5,-91)">
        <text x="492.07px" y="478.6px" style="font-family:'DMSans-Bold', 'DM Sans';font-weight:700;font-size:30px;fill:rgb(248,245,241);">an Obsidian theme</text>
    </g>
</svg>
